<?xml version="1.0" encoding="iso-8859-1"?>
<!-- Generator: Adobe Illustrator 18.1.1, SVG Export Plug-In . SVG Version: 6.00 Build 0)  -->
<svg version="1.1" id="_x39_" xmlns="http://www.w3.org/2000/svg" xmlns:xlink="http://www.w3.org/1999/xlink" x="0px" y="0px"
	 viewBox="0 0 512 512" style="enable-background:new 0 0 512 512;" xml:space="preserve">
<g>
	<path style="fill:oklch(58% 0.12 90);" d="M353.827,301.069H246.868c-10.327,0-18.7-8.371-18.7-18.702c0-10.327,8.373-18.701,18.7-18.701
		h246.429c10.331,0,18.703-8.374,18.703-18.701c0-10.331-8.373-18.704-18.703-18.704h-110.44c-7.368,0-13.342-5.973-13.342-13.342
		c0-7.372,5.974-13.345,13.342-13.345h52.729c7.809,0,14.137-6.329,14.137-14.137c0-7.808-6.328-14.139-14.137-14.139H190.311
		c-7.809,0-14.137,6.331-14.137,14.139c0,7.807,6.328,14.137,14.137,14.137h118.712c7.368,0,13.34,5.973,13.34,13.345
		c0,7.369-5.972,13.342-13.34,13.342H113.364c-10.329,0-18.701,8.374-18.701,18.704c0,10.328,8.373,18.701,18.701,18.701h30.019
		c10.329,0,18.703,8.375,18.703,18.701c0,10.331-8.374,18.702-18.703,18.702H19.814C8.872,301.069,0,309.941,0,320.884
		c0,10.946,8.872,19.819,19.814,19.819h334.013c10.944,0,19.816-8.872,19.816-19.819
		C373.642,309.941,364.77,301.069,353.827,301.069z"/>
</g>
</svg>
