<?xml version="1.0" encoding="iso-8859-1"?>
<!-- Generator: Adobe Illustrator 18.1.1, SVG Export Plug-In . SVG Version: 6.00 Build 0)  -->
<svg version="1.1" id="_x31_0" xmlns="http://www.w3.org/2000/svg" xmlns:xlink="http://www.w3.org/1999/xlink" x="0px" y="0px"
	 viewBox="0 0 512 512" style="enable-background:new 0 0 512 512;" xml:space="preserve">
<g>
	<path style="fill:#FFFFFF;" d="M238.811,295.072H214.02c-8.953,0-16.213-7.257-16.213-16.213c0-8.953,7.26-16.213,16.213-16.213
		h136.243c8.956,0,16.216-7.259,16.216-16.213c0-8.956-7.26-16.215-16.216-16.215h-18.35c-6.389,0-11.568-5.178-11.568-11.567
		c0-6.391,5.179-11.569,11.568-11.569h167.829c6.772,0,12.257-5.487,12.257-12.256c0-6.769-5.486-12.257-12.257-12.257H241.921
		c-6.77,0-12.255,5.488-12.255,12.257c0,6.768,5.486,12.256,12.255,12.256h25.982c6.388,0,11.567,5.178,11.567,11.569
		c0,6.389-5.179,11.567-11.567,11.567H67.744c-8.954,0-16.213,7.259-16.213,16.215c0,8.953,7.259,16.213,16.213,16.213h56.56
		c8.956,0,16.216,7.26,16.216,16.213c0,8.956-7.26,16.213-16.216,16.213H17.179C7.692,295.072,0,302.763,0,312.25
		c0,9.49,7.692,17.181,17.179,17.181h221.632c9.486,0,17.177-7.692,17.177-17.181C255.988,302.763,248.297,295.072,238.811,295.072z
		"/>
</g>
</svg>
