<?xml version="1.0" encoding="iso-8859-1"?>
<!-- Generator: Adobe Illustrator 18.1.1, SVG Export Plug-In . SVG Version: 6.00 Build 0)  -->
<svg version="1.1" id="_x38_" xmlns="http://www.w3.org/2000/svg" xmlns:xlink="http://www.w3.org/1999/xlink" x="0px" y="0px"
	 viewBox="0 0 512 512" style="enable-background:new 0 0 512 512;" xml:space="preserve">
<g>
	<path style="fill:oklch(58% 0.12 90);" d="M501.309,298.736H348.292c-5.572,0-10.09-4.52-10.09-10.094c0-5.575,4.518-10.092,10.09-10.092
		h20.171c8.084,0,14.638-6.554,14.638-14.641c0-8.084-6.554-14.637-14.638-14.637H232.349c-9.66,0-17.485-7.831-17.485-17.49
		c0-9.661,7.824-17.489,17.485-17.489h47.814c6.191,0,11.208-5.017,11.208-11.206c0-6.189-5.017-11.206-11.208-11.206H11.204
		C5.015,191.881,0,196.898,0,203.087c0,6.189,5.015,11.206,11.204,11.206h124.377c9.656,0,17.489,7.829,17.489,17.489
		c0,9.659-7.833,17.49-17.489,17.49h-34.723c-8.084,0-14.64,6.553-14.64,14.637c0,8.086,6.556,14.641,14.64,14.641h144.306h47.283
		c5.574,0,10.096,4.517,10.096,10.092c0,5.574-4.522,10.094-10.096,10.094h-66.679c-5.907,0-10.697,4.786-10.697,10.693
		c0,5.907,4.791,10.691,10.697,10.691h275.541c5.905,0,10.691-4.784,10.691-10.691C512,303.522,507.214,298.736,501.309,298.736z"/>
</g>
</svg>
