<?xml version="1.0" encoding="iso-8859-1"?>
<!-- Generator: Adobe Illustrator 18.1.1, SVG Export Plug-In . SVG Version: 6.00 Build 0)  -->
<svg version="1.1" id="_x35_" xmlns="http://www.w3.org/2000/svg" xmlns:xlink="http://www.w3.org/1999/xlink" x="0px" y="0px"
	 viewBox="0 0 512 512" style="enable-background:new 0 0 512 512;" xml:space="preserve">
<g>
	<path style="fill:#FFFFFF;" d="M491.989,278.471H236.503c-13.201,0-23.903-10.702-23.903-23.906
		c0-13.202,10.702-23.903,23.903-23.903h73.524c10.26,0,18.579-8.317,18.579-18.577c0-10.26-8.319-18.577-18.579-18.577H49.478
		c-10.258,0-18.577,8.317-18.577,18.577c0,10.26,8.319,18.577,18.577,18.577h54.752c13.203,0,23.905,10.7,23.905,23.903
		c0,13.204-10.701,23.906-23.905,23.906H20.011C8.959,278.471,0,287.431,0,298.478c0,11.054,8.959,20.013,20.011,20.013h471.979
		c11.054,0,20.011-8.959,20.011-20.013C512,287.431,503.043,278.471,491.989,278.471z"/>
</g>
</svg>
