<?xml version="1.0" encoding="iso-8859-1"?>
<!-- Generator: Adobe Illustrator 18.1.1, SVG Export Plug-In . SVG Version: 6.00 Build 0)  -->
<svg version="1.1" id="_x36_" xmlns="http://www.w3.org/2000/svg" xmlns:xlink="http://www.w3.org/1999/xlink" x="0px" y="0px"
	 viewBox="0 0 512 512" style="enable-background:new 0 0 512 512;" xml:space="preserve">
<g>
	<path style="fill:oklch(58% 0.12 90);" d="M495.183,199.422H259.288c-9.287,0-16.819,7.53-16.819,16.819c0,9.287,7.533,16.819,16.819,16.819
		h49.575c11.949,0,21.646,9.685,21.646,21.64c0,11.953-9.697,21.645-21.646,21.645H18.118C8.112,276.346,0,284.455,0,294.459
		c0,10.006,8.112,18.119,18.118,18.119h427.317c10.004,0,18.113-8.113,18.113-18.119c0-10.004-8.109-18.113-18.113-18.113h-16.819
		c-11.951,0-21.639-9.692-21.639-21.645c0-11.955,9.688-21.64,21.639-21.64h66.568c9.287,0,16.817-7.533,16.817-16.819
		C512,206.952,504.47,199.422,495.183,199.422z"/>
</g>
</svg>
