<?xml version="1.0" encoding="iso-8859-1"?>
<!-- Generator: Adobe Illustrator 18.1.1, SVG Export Plug-In . SVG Version: 6.00 Build 0)  -->
<svg version="1.1" id="_x31_" xmlns="http://www.w3.org/2000/svg" xmlns:xlink="http://www.w3.org/1999/xlink" x="0px" y="0px"
	 viewBox="0 0 512 512" style="enable-background:new 0 0 512 512;" xml:space="preserve">
<g>
	<path style="fill:oklch(58% 0.12 90);" d="M501.224,241.842H365.96c-5.923,0-10.727-4.802-10.727-10.726c0-5.924,4.804-10.726,10.727-10.726
		h109.201c6.28,0,11.369-5.086,11.369-11.363c0-6.278-5.089-11.366-11.369-11.366H247.706c-6.28,0-11.364,5.087-11.364,11.366
		c0,6.277,5.084,11.363,11.364,11.363h58.903c5.924,0,10.727,4.803,10.727,10.726c0,5.925-4.803,10.726-10.727,10.726H10.774
		C4.825,241.842,0,246.666,0,252.617c0,5.952,4.825,10.776,10.774,10.776H187.57c7.658,0,13.865,6.206,13.865,13.864
		c0,7.659-6.207,13.869-13.865,13.869h-48.851c-6.411,0-11.608,5.195-11.608,11.605c0,6.411,5.197,11.608,11.608,11.608h273.768
		c6.409,0,11.606-5.197,11.606-11.608c0-6.41-5.197-11.605-11.606-11.605H264.292c-7.658,0-13.864-6.209-13.864-13.869
		c0-7.658,6.206-13.864,13.864-13.864h236.932c5.952,0,10.776-4.824,10.776-10.776C512,246.666,507.176,241.842,501.224,241.842z"/>
</g>
</svg>
