<svg width="242" height="50" viewBox="0 0 242 50" fill="none" xmlns="http://www.w3.org/2000/svg">
<path d="M89.43 22.3125H91.2675V15.267L91.827 14.886C92.0055 14.742 92.0925 14.6025 92.0925 14.4615C92.0925 14.1 91.6665 13.65 90.3405 12.606L90.249 12.534L89.3025 13.626H83.574C83.4045 13.563 83.3505 13.5495 83.2785 13.5315L83.2365 13.5225C83.154 13.4925 83.076 13.464 83.004 13.44C82.8885 13.401 82.788 13.3665 82.71 13.329C82.497 13.2585 82.365 13.221 82.1445 13.161C82.02 13.1265 81.8685 13.0845 81.6585 13.026L81.504 12.981V38.2725H83.397V21.7095H89.4285V22.3155L89.43 22.3125ZM89.43 18.351V20.1735H83.3985V18.351H89.43ZM83.4 16.8165V15.1575H89.4315V16.8165H83.4Z" fill="#967600" style="fill:#967600;fill:color(display-p3 0.5882 0.4627 0.0000);fill-opacity:1;"/>
<path d="M103.301 12.633L103.212 12.564L102.237 13.626H96.177C95.1796 13.248 94.755 13.107 94.365 13.023L94.2181 12.9915V22.2315H95.1001C94.7641 23.286 94.1566 24.639 93.5266 25.7325H91.1056C91.4551 25.5015 91.6275 25.215 91.6275 24.8625C91.6275 23.982 90.4801 22.932 88.5571 22.056L88.4746 22.0185L87.7531 22.8435L87.8536 22.923C88.8571 23.709 89.4121 24.4485 89.5996 25.251C89.6491 25.446 89.7001 25.6065 89.7751 25.734H86.0356L86.433 27.159H91.797V29.3385H84.9615L85.4161 30.9H91.6321C91.0936 33.303 88.965 35.022 85.6185 35.7525L85.467 35.7855L86.1031 37.056L86.1975 37.032C89.781 36.129 91.9276 34.752 92.9356 32.706C94.5961 33.6165 95.931 34.743 96.804 35.9715C97.0245 36.246 97.2225 36.429 97.476 36.429C97.989 36.429 98.67 35.7645 98.67 35.2635C98.67 34.26 96.6525 32.802 93.5236 31.545L93.3825 31.4985C93.441 31.2645 93.4846 31.086 93.5266 30.9H100.325L100.841 29.967L100.785 29.9025C100.241 29.2755 99.8025 28.8315 98.9235 28.152L98.8365 28.0845L97.6411 29.337H93.6315V27.1575H99.363L99.7876 26.3085L99.744 26.2485C99.345 25.7085 98.946 25.287 98.3235 24.7455L97.9815 24.441L96.9196 25.7325H95.097C95.52 25.2465 96.1095 24.5385 96.3885 24.0705C96.981 24.024 97.5646 23.916 97.5646 23.514C97.5646 23.268 97.3455 22.902 95.7315 22.2315H96.0225V21.708H102.384V35.097C102.384 35.6265 102.279 35.7195 101.679 35.7195C100.524 35.7195 99.3945 35.634 98.9205 35.556L98.7795 35.532V36.795L98.8815 36.8115C100.938 37.1505 101.279 37.401 101.256 37.9815L101.252 38.109L101.379 38.106C103.518 38.079 104.277 37.5435 104.277 36.06V15.4365L104.889 15.0525C105.042 14.9385 105.129 14.793 105.129 14.6535C105.129 14.2395 104.633 13.692 103.295 12.633H103.301ZM102.39 18.351V20.1735H96.0286V18.351H102.39ZM96.0286 16.8165V15.1575H102.39V16.8165H96.0286Z" fill="#967600" style="fill:#967600;fill:color(display-p3 0.5882 0.4627 0.0000);fill-opacity:1;"/>
<path d="M112.877 17.3235C112.962 17.661 113.114 18.0465 113.544 18.0465C114.192 18.0465 114.903 17.4075 114.903 16.8255C114.903 15.846 113.777 14.664 111.813 13.5825L111.726 13.536L110.946 14.4525L111.048 14.529C111.903 15.1695 112.604 16.2405 112.874 17.322L112.877 17.3235Z" fill="#967600" style="fill:#967600;fill:color(display-p3 0.5882 0.4627 0.0000);fill-opacity:1;"/>
<path d="M119.959 18.0855L120.034 18.0165C120.834 17.304 121.747 16.2945 122.328 15.489C123.216 15.477 123.405 15.2085 123.405 14.9835C123.405 14.5515 122.676 14.0325 121.239 13.4415L121.128 13.395L121.081 13.5075C120.474 14.9835 119.764 16.3125 119.086 17.2515L119.019 17.346L119.959 18.0855Z" fill="#967600" style="fill:#967600;fill:color(display-p3 0.5882 0.4627 0.0000);fill-opacity:1;"/>
<path d="M136.41 36.174C133.859 34.803 131.721 32.931 130.058 30.6045C131.73 27.645 132.815 24.0015 133.197 20.064L133.209 19.974H135.575L136.025 19.041L135.98 18.9825C135.312 18.093 134.987 17.7375 134.039 16.8735L133.943 16.7865L132.662 18.4395H126.747C127.085 17.2725 127.358 16.2195 127.707 14.5065C128.448 14.328 128.936 14.127 128.936 13.746C128.936 13.4265 128.598 13.002 125.975 12.5535L125.85 12.5325L125.834 12.657C125.072 18.372 123.905 22.2525 122.054 25.2375L121.995 25.3335L123.089 26.1285L123.161 26.034C123.93 25.026 124.487 24.096 125.084 22.8015C125.693 25.6995 126.663 28.3725 127.902 30.5535C126.105 33.336 123.569 35.7825 121.107 37.1085L120.981 37.176L121.817 38.247L121.904 38.205C124.559 36.945 127.202 34.7475 129.003 32.3055C130.539 34.494 132.35 36.282 134.687 37.92L134.78 37.9845L134.85 37.896C135.452 37.152 135.848 36.7695 136.421 36.381L136.586 36.2685L136.41 36.174ZM131.186 19.974C130.887 23.061 130.103 26.097 128.912 28.7775C127.565 26.391 126.578 23.5365 126.051 20.5005C126.099 20.3865 126.119 20.325 126.168 20.175L126.234 19.974H131.187H131.186Z" fill="#967600" style="fill:#967600;fill:color(display-p3 0.5882 0.4627 0.0000);fill-opacity:1;"/>
<path d="M122.001 35.316C122.001 34.767 121.297 34.1835 119.58 33.315C120.355 32.1315 120.994 30.645 121.531 28.779H123.742L124.227 27.8415L124.171 27.78C123.456 26.982 123.045 26.5965 122.338 26.058L122.25 25.992L121.137 27.2175H116.497L116.602 26.949C117.364 26.8005 117.735 26.586 117.735 26.292C117.735 25.887 117.093 25.5465 115.446 25.077L115.341 25.047L115.222 25.3515C114.951 26.052 114.784 26.4825 114.454 27.219H110.076L110.563 28.7805H113.734C113.148 29.979 112.374 31.308 111.487 32.637L111.412 32.7495L113.032 33.606L113.586 32.7465L113.781 32.466C115.089 32.9325 116.179 33.4035 116.953 33.8355C115.353 35.5185 113.28 36.504 110.442 36.933L110.271 36.9585L110.974 38.2305L111.058 38.217C114.397 37.671 116.913 36.5085 118.54 34.764C119.25 35.268 119.764 35.718 120.249 36.2505C120.489 36.5205 120.655 36.621 120.862 36.621C121.33 36.621 122.001 35.8545 122.001 35.3175V35.316ZM114.442 31.338C114.937 30.4995 115.467 29.5005 115.795 28.7775H119.439C119.056 30.1815 118.537 31.44 117.895 32.523C116.892 32.1165 115.903 31.776 114.441 31.3365L114.442 31.338Z" fill="#967600" style="fill:#967600;fill:color(display-p3 0.5882 0.4627 0.0000);fill-opacity:1;"/>
<path d="M110.904 25.4355C112.839 24.4275 114.731 22.9815 116.258 21.3465V25.1205H118.068V21.5955C119.229 22.218 120.191 23.037 120.797 23.919C121.02 24.198 121.188 24.3495 121.442 24.3495C121.922 24.3495 122.609 23.6145 122.609 23.1015C122.609 22.164 121.208 21.297 118.068 20.289V19.7835H123.329L123.84 18.855L123.794 18.792C123.24 18.0435 122.93 17.7045 122.208 17.067L122.112 16.9815L121.079 18.303H118.067V14.3505C118.682 14.0985 119.085 13.857 119.085 13.5255C119.085 13.0485 118.277 12.807 116.384 12.717L116.256 12.711V18.303H110.36L110.756 19.782H115.167C113.651 21.7065 111.858 23.3325 110.099 24.3735L109.979 24.444L110.817 25.482L110.906 25.4355H110.904Z" fill="#967600" style="fill:#967600;fill:color(display-p3 0.5882 0.4627 0.0000);fill-opacity:1;"/>
<path d="M157.797 16.002C158.556 15.711 158.925 15.423 158.925 15.12C158.925 14.475 157.349 14.34 156.026 14.34H155.904V24.5415H157.797V16.002Z" fill="#967600" style="fill:#967600;fill:color(display-p3 0.5882 0.4627 0.0000);fill-opacity:1;"/>
<path d="M157.115 26.163V27.4455L157.223 27.4575C160.253 27.7695 160.572 27.969 160.527 28.623L160.518 28.7595L160.655 28.752C162.678 28.6395 163.385 28.152 163.356 26.898V15.093C164.106 14.7915 164.429 14.526 164.429 14.214C164.429 13.902 164.129 13.4505 161.537 13.296L161.409 13.2885V25.743C161.409 26.217 161.346 26.31 160.622 26.31C159.747 26.31 158.706 26.268 157.245 26.172L157.116 26.163H157.115Z" fill="#967600" style="fill:#967600;fill:color(display-p3 0.5882 0.4627 0.0000);fill-opacity:1;"/>
<path d="M165.773 36.4455C165.117 35.712 164.6 35.2335 163.64 34.479L163.556 34.413L162.057 35.883H153.753V32.52H162.924L163.379 31.611L163.326 31.551C162.506 30.588 162.095 30.183 161.328 29.58L161.241 29.5125L159.825 30.9855H153.752V29.262C154.551 28.9395 154.88 28.683 154.88 28.3815C154.88 28.059 154.574 27.6225 151.928 27.546L151.803 27.543V30.9855H142.82L143.276 32.52H151.802V35.883H139.929L140.414 37.5H165.282L165.825 36.51L165.768 36.4455H165.773Z" fill="#967600" style="fill:#967600;fill:color(display-p3 0.5882 0.4627 0.0000);fill-opacity:1;"/>
<path d="M140.294 20.3655L140.718 21.9H144.039C143.879 24.9975 142.763 27.231 140.631 28.7235L140.528 28.797L141.33 29.835L141.422 29.7825C144.344 28.0875 145.797 25.5825 145.988 21.9015H149.273V29.1375H151.166V21.9015H154.613L155.121 20.9175L155.078 20.8575C154.536 20.1165 154.11 19.668 153.413 18.9975L153.318 18.9075L152.117 20.367H151.167V15.93H154.061L154.602 14.9745L154.553 14.91C153.969 14.16 153.605 13.7955 152.691 13.047L152.598 12.972L151.403 14.3955H140.796L141.155 15.93H144.074V20.367H140.294V20.3655ZM146.022 20.3655V15.9285H149.274V20.3655H146.022Z" fill="#967600" style="fill:#967600;fill:color(display-p3 0.5882 0.4627 0.0000);fill-opacity:1;"/>
<path d="M182.835 30.4335L182.752 26.457V26.265C187.678 25.7865 189.108 25.389 189.108 24.504C189.108 23.8575 188.088 23.2005 187.089 23.2005C186.729 23.2005 186.348 23.322 185.925 23.5755C185.36 23.9265 184.227 24.2355 182.726 24.447L182.643 20.8725V20.787C185.265 20.514 187.774 20.1375 188.638 19.887C189.3 19.6755 189.659 19.4625 189.659 18.9465C189.659 18.291 188.65 17.6715 187.584 17.6715C187.236 17.6715 186.747 17.7405 186.423 17.934C185.896 18.2355 185.109 18.516 184.36 18.666C184.081 18.7425 183.229 18.9135 182.614 19.002C182.619 17.517 182.694 16.4685 182.827 16.0455C182.907 15.834 182.945 15.6045 182.945 15.3435C182.945 14.3805 181.769 13.6545 180.21 13.6545C179.823 13.6545 179.399 13.7085 178.917 13.8225L178.841 13.842L178.635 14.94L178.779 14.943C180.315 14.9685 180.56 15.168 180.531 17.8485V19.254C179.523 19.368 178.261 19.4355 177.048 19.4355C174.856 19.4355 173.557 19.0305 172.566 18.039L172.458 17.931L171.719 19.107L171.792 19.176C173.348 20.622 174.882 21.1335 177.652 21.1335C178.566 21.1335 179.493 21.0855 180.561 20.9805C180.583 22.227 180.622 23.394 180.651 24.255L180.666 24.6975C179.622 24.7725 178.351 24.828 177.598 24.828C175.549 24.828 174.516 24.5025 173.499 23.541L173.384 23.4315L172.774 24.579L172.828 24.642C173.946 25.929 175.645 26.526 178.174 26.526C179.008 26.526 179.979 26.4975 180.695 26.4525L180.859 30.0105V30.063C179.661 29.883 178.801 29.8065 178.009 29.8065C174.109 29.8065 171.78 31.2 171.78 33.531C171.78 35.6895 174.366 37.2555 177.927 37.2555C179.281 37.2555 180.657 36.9 181.518 36.327C182.46 35.67 182.917 34.6395 182.917 33.174C182.917 33.0345 182.918 32.862 182.891 32.706V32.4645C184.977 33.2175 186.753 34.095 188.314 35.1465C189.085 35.6685 189.173 35.7165 189.73 35.7165C190.409 35.7165 190.815 35.322 190.815 34.6605C190.815 33.1425 187.983 31.644 182.837 30.438L182.835 30.4335ZM177.513 31.392C178.5 31.392 179.644 31.5495 180.913 31.86V32.151C180.913 34.842 180.369 35.388 177.678 35.388C175.238 35.388 173.534 34.599 173.534 33.4725C173.534 32.229 175.133 31.392 177.512 31.392H177.513Z" fill="#967600" style="fill:#967600;fill:color(display-p3 0.5882 0.4627 0.0000);fill-opacity:1;"/>
<path d="M210.696 17.835C208.173 17.835 205.769 18.4245 200.804 20.262C198.569 21.108 198.539 21.108 198.039 21.108C197.54 21.108 197.124 20.874 196.821 20.3925L196.74 20.265L195.773 21.2325L195.815 21.312C196.713 23.0235 197.502 23.6595 198.728 23.6595C199.235 23.6595 199.421 23.604 199.971 23.286C202.869 21.6405 204.108 21.027 205.731 20.433C207.575 19.755 209.415 19.3665 210.78 19.3665C213.917 19.3665 216.107 21.4455 216.107 24.4185C216.107 29.0325 213.032 31.2675 204.762 32.664L204.594 32.6925L205.349 34.0695L205.43 34.059C214.455 32.889 218.66 29.895 218.66 24.639C218.66 20.6955 215.31 17.8335 210.698 17.8335L210.696 17.835Z" fill="#967600" style="fill:#967600;fill:color(display-p3 0.5882 0.4627 0.0000);fill-opacity:1;"/>
<path d="M231.702 24.357L230.886 23.406L228.956 25.8555C228.947 25.653 228.947 25.5165 228.947 25.3275C228.947 23.397 229.644 20.6025 230.469 19.2285C230.883 18.567 231.009 18.2115 231.009 17.7075C231.009 16.641 230.207 15.654 228.557 14.688L228.483 14.6445L227.489 15.4725L227.586 15.5655C228.182 16.1325 228.402 16.5945 228.402 17.268C228.402 17.76 228.338 18.3075 228.018 19.524C227.342 22.404 227.136 23.7675 227.136 25.356C227.136 27.1935 227.52 28.6635 228.318 29.862C228.581 30.1755 228.777 30.3465 229.073 30.3465C229.766 30.3465 229.832 29.5185 229.853 29.244C229.961 27.5475 230.514 26.064 231.648 24.4335L231.701 24.357H231.702Z" fill="#967600" style="fill:#967600;fill:color(display-p3 0.5882 0.4627 0.0000);fill-opacity:1;"/>
<path d="M240.471 15.9375C240.071 14.676 239.328 14.037 238.265 14.037C237.564 14.037 236.978 14.283 236.42 14.814L236.358 14.8725L236.87 15.999L236.991 15.9015C237.239 15.7035 237.458 15.6255 237.77 15.6255C238.046 15.6255 238.253 15.762 238.421 16.4415C238.668 17.487 238.887 20.7525 238.887 23.43C238.887 30.7155 236.571 34.386 230.63 36.5235L230.489 36.5745L231.222 37.74L231.308 37.716C234.788 36.768 236.895 35.481 238.58 33.2715C240.41 30.912 241.301 27.8445 241.301 23.8965C241.301 20.8365 240.944 17.4135 240.471 15.936V15.9375Z" fill="#967600" style="fill:#967600;fill:color(display-p3 0.5882 0.4627 0.0000);fill-opacity:1;"/>
<path d="M37.431 0.00150299H46.1655C48.2325 0.00150299 49.9095 1.677 49.9095 3.7455V9.984C49.9095 11.3625 48.792 12.48 47.4135 12.48H39.927C38.5485 12.48 37.431 11.3625 37.431 9.984V0.00150299Z" fill="url(#paint0_linear_1299_3)" style=""/>
<path d="M24.954 12.4785H34.9365C36.315 12.4785 37.4325 13.596 37.4325 14.9745V22.461C37.4325 23.8395 36.315 24.957 34.9365 24.957H24.954V12.48V12.4785Z" fill="url(#paint1_linear_1299_3)" style=""/>
<path d="M39.927 24.957H47.4135C48.792 24.957 49.9095 26.0745 49.9095 27.453V33.6915C49.9095 35.7585 48.234 37.4355 46.1655 37.4355H37.431V27.453C37.431 26.0745 38.5485 24.957 39.927 24.957Z" fill="url(#paint2_linear_1299_3)" style=""/>
<path d="M21.21 12.4785C23.277 12.4785 24.954 10.803 24.954 8.7345V0H12.477C5.586 0 0 5.586 0 12.477V49.9095H12.477V37.4325H21.2115C23.2785 37.4325 24.9555 35.757 24.9555 33.6885V28.698C24.9555 26.631 23.28 24.954 21.2115 24.954H12.477V12.477H21.2115L21.21 12.4785Z" fill="url(#paint3_linear_1299_3)" style=""/>
<path d="M24.954 37.434H34.9365C36.315 37.434 37.4325 38.5515 37.4325 39.93V49.9125H24.9555V37.4355L24.954 37.434Z" fill="url(#paint4_linear_1299_3)" style=""/>
<path d="M62.3865 18.717C62.3865 15.2716 59.5934 12.4785 56.148 12.4785C52.7026 12.4785 49.9095 15.2716 49.9095 18.717C49.9095 22.1624 52.7026 24.9555 56.148 24.9555C59.5934 24.9555 62.3865 22.1624 62.3865 18.717Z" fill="#CE3F3D" style="fill:#CE3F3D;fill:color(display-p3 0.8078 0.2471 0.2392);fill-opacity:1;"/>
<defs>
<linearGradient id="paint0_linear_1299_3" x1="17.472" y1="-19.593" x2="72.261" y2="35.196" gradientUnits="userSpaceOnUse">
<stop stop-color="#F4DA0B" style="stop-color:#F4DA0B;stop-color:color(display-p3 0.9569 0.8549 0.0431);stop-opacity:1;"/>
<stop offset="0.18" stop-color="#EEB756" style="stop-color:#EEB756;stop-color:color(display-p3 0.9333 0.7176 0.3373);stop-opacity:1;"/>
<stop offset="0.4" stop-color="#E26264" style="stop-color:#E26264;stop-color:color(display-p3 0.8863 0.3843 0.3922);stop-opacity:1;"/>
<stop offset="0.6" stop-color="#D26058" style="stop-color:#D26058;stop-color:color(display-p3 0.8235 0.3765 0.3451);stop-opacity:1;"/>
<stop offset="0.78" stop-color="#745BA2" style="stop-color:#745BA2;stop-color:color(display-p3 0.4549 0.3569 0.6353);stop-opacity:1;"/>
<stop offset="1" stop-color="#5352A0" style="stop-color:#5352A0;stop-color:color(display-p3 0.3255 0.3216 0.6275);stop-opacity:1;"/>
</linearGradient>
<linearGradient id="paint1_linear_1299_3" x1="4.81048" y1="-6.933" x2="59.601" y2="47.856" gradientUnits="userSpaceOnUse">
<stop stop-color="#F4DA0B" style="stop-color:#F4DA0B;stop-color:color(display-p3 0.9569 0.8549 0.0431);stop-opacity:1;"/>
<stop offset="0.18" stop-color="#EEB756" style="stop-color:#EEB756;stop-color:color(display-p3 0.9333 0.7176 0.3373);stop-opacity:1;"/>
<stop offset="0.4" stop-color="#E26264" style="stop-color:#E26264;stop-color:color(display-p3 0.8863 0.3843 0.3922);stop-opacity:1;"/>
<stop offset="0.6" stop-color="#D26058" style="stop-color:#D26058;stop-color:color(display-p3 0.8235 0.3765 0.3451);stop-opacity:1;"/>
<stop offset="0.78" stop-color="#745BA2" style="stop-color:#745BA2;stop-color:color(display-p3 0.4549 0.3569 0.6353);stop-opacity:1;"/>
<stop offset="1" stop-color="#5352A0" style="stop-color:#5352A0;stop-color:color(display-p3 0.3255 0.3216 0.6275);stop-opacity:1;"/>
</linearGradient>
<linearGradient id="paint2_linear_1299_3" x1="4.81047" y1="-6.933" x2="59.601" y2="47.856" gradientUnits="userSpaceOnUse">
<stop stop-color="#F4DA0B" style="stop-color:#F4DA0B;stop-color:color(display-p3 0.9569 0.8549 0.0431);stop-opacity:1;"/>
<stop offset="0.18" stop-color="#EEB756" style="stop-color:#EEB756;stop-color:color(display-p3 0.9333 0.7176 0.3373);stop-opacity:1;"/>
<stop offset="0.4" stop-color="#E26264" style="stop-color:#E26264;stop-color:color(display-p3 0.8863 0.3843 0.3922);stop-opacity:1;"/>
<stop offset="0.6" stop-color="#D26058" style="stop-color:#D26058;stop-color:color(display-p3 0.8235 0.3765 0.3451);stop-opacity:1;"/>
<stop offset="0.78" stop-color="#745BA2" style="stop-color:#745BA2;stop-color:color(display-p3 0.4549 0.3569 0.6353);stop-opacity:1;"/>
<stop offset="1" stop-color="#5352A0" style="stop-color:#5352A0;stop-color:color(display-p3 0.3255 0.3216 0.6275);stop-opacity:1;"/>
</linearGradient>
<linearGradient id="paint3_linear_1299_3" x1="-7.3005" y1="5.1795" x2="47.4885" y2="59.9685" gradientUnits="userSpaceOnUse">
<stop stop-color="#F4DA0B" style="stop-color:#F4DA0B;stop-color:color(display-p3 0.9569 0.8549 0.0431);stop-opacity:1;"/>
<stop offset="0.18" stop-color="#EEB756" style="stop-color:#EEB756;stop-color:color(display-p3 0.9333 0.7176 0.3373);stop-opacity:1;"/>
<stop offset="0.4" stop-color="#E26264" style="stop-color:#E26264;stop-color:color(display-p3 0.8863 0.3843 0.3922);stop-opacity:1;"/>
<stop offset="0.6" stop-color="#D26058" style="stop-color:#D26058;stop-color:color(display-p3 0.8235 0.3765 0.3451);stop-opacity:1;"/>
<stop offset="0.78" stop-color="#745BA2" style="stop-color:#745BA2;stop-color:color(display-p3 0.4549 0.3569 0.6353);stop-opacity:1;"/>
<stop offset="1" stop-color="#5352A0" style="stop-color:#5352A0;stop-color:color(display-p3 0.3255 0.3216 0.6275);stop-opacity:1;"/>
</linearGradient>
<linearGradient id="paint4_linear_1299_3" x1="-7.66652" y1="5.5455" x2="47.1225" y2="60.3345" gradientUnits="userSpaceOnUse">
<stop stop-color="#F4DA0B" style="stop-color:#F4DA0B;stop-color:color(display-p3 0.9569 0.8549 0.0431);stop-opacity:1;"/>
<stop offset="0.18" stop-color="#EEB756" style="stop-color:#EEB756;stop-color:color(display-p3 0.9333 0.7176 0.3373);stop-opacity:1;"/>
<stop offset="0.4" stop-color="#E26264" style="stop-color:#E26264;stop-color:color(display-p3 0.8863 0.3843 0.3922);stop-opacity:1;"/>
<stop offset="0.6" stop-color="#D26058" style="stop-color:#D26058;stop-color:color(display-p3 0.8235 0.3765 0.3451);stop-opacity:1;"/>
<stop offset="0.78" stop-color="#745BA2" style="stop-color:#745BA2;stop-color:color(display-p3 0.4549 0.3569 0.6353);stop-opacity:1;"/>
<stop offset="1" stop-color="#5352A0" style="stop-color:#5352A0;stop-color:color(display-p3 0.3255 0.3216 0.6275);stop-opacity:1;"/>
</linearGradient>
</defs>
</svg>
