<?xml version="1.0" encoding="iso-8859-1"?>
<!-- Generator: Adobe Illustrator 18.1.1, SVG Export Plug-In . SVG Version: 6.00 Build 0)  -->
<svg version="1.1" id="_x37_" xmlns="http://www.w3.org/2000/svg" xmlns:xlink="http://www.w3.org/1999/xlink" x="0px" y="0px"
	 viewBox="0 0 512 512" style="enable-background:new 0 0 512 512;" xml:space="preserve">
<g>
	<path style="fill:#FFFFFF;" d="M491.99,278.472H236.504c-13.204,0-23.903-10.705-23.903-23.908
		c0-13.202,10.699-23.902,23.903-23.902h73.524c10.26,0,18.577-8.316,18.577-18.577c0-10.259-8.316-18.577-18.577-18.577H49.478
		c-10.261,0-18.577,8.318-18.577,18.577c0,10.261,8.316,18.577,18.577,18.577h54.751c13.204,0,23.908,10.701,23.908,23.902
		c0,13.203-10.704,23.908-23.908,23.908H20.01c-11.051,0-20.01,8.96-20.01,20.009c0,11.052,8.959,20.011,20.01,20.011h471.98
		c11.053,0,20.01-8.959,20.01-20.011C512,287.432,503.042,278.472,491.99,278.472z"/>
</g>
</svg>
