<?xml version="1.0" encoding="iso-8859-1"?>
<!-- Generator: Adobe Illustrator 18.1.1, SVG Export Plug-In . SVG Version: 6.00 Build 0)  -->
<svg version="1.1" id="_x31_2" xmlns="http://www.w3.org/2000/svg" xmlns:xlink="http://www.w3.org/1999/xlink" x="0px" y="0px"
	 viewBox="0 0 512 512" style="enable-background:new 0 0 512 512;" xml:space="preserve">
<g>
	<path style="fill:#FFFFFF;" d="M495.888,270.303H315.649c-8.399,0-15.207-6.81-15.207-15.209c0-8.4,6.807-15.207,15.207-15.207
		h43.936c8.4,0,15.207-6.811,15.207-15.21c0-8.398-6.807-15.207-15.207-15.207H15.209C6.809,209.471,0,216.28,0,224.678
		c0,8.4,6.809,15.21,15.209,15.21h216.289c8.401,0,15.21,6.807,15.21,15.207c0,8.399-6.809,15.209-15.21,15.209H131.019
		c-8.901,0-16.112,7.213-16.112,16.114c0,8.897,7.211,16.112,16.112,16.112h364.869c8.901,0,16.112-7.215,16.112-16.112
		C512,277.516,504.789,270.303,495.888,270.303z"/>
</g>
</svg>
