<?xml version="1.0" encoding="iso-8859-1"?>
<!-- Generator: Adobe Illustrator 18.1.1, SVG Export Plug-In . SVG Version: 6.00 Build 0)  -->
<svg version="1.1" id="_x31_1" xmlns="http://www.w3.org/2000/svg" xmlns:xlink="http://www.w3.org/1999/xlink" x="0px" y="0px"
	 viewBox="0 0 512 512" style="enable-background:new 0 0 512 512;" xml:space="preserve">
<g>
	<path style="fill:oklch(65% 0.1 90);" d="M450.17,284.179h-54.69c-16.544,0-29.955-13.416-29.955-29.962
		c0-16.548,13.411-29.959,29.955-29.959h86.558c16.551,0,29.962-13.418,29.962-29.966c0-16.545-13.411-29.959-29.962-29.959H139.663
		c-16.545,0-29.966,13.414-29.966,29.959c0,16.548,13.421,29.966,29.966,29.966H229.7c16.545,0,29.962,13.411,29.962,29.959
		c0,16.546-13.418,29.962-29.962,29.962H31.742C14.21,284.179,0,298.389,0,315.925c0,17.528,14.21,31.742,31.742,31.742H450.17
		c17.539,0,31.749-14.214,31.749-31.742C481.919,298.389,467.709,284.179,450.17,284.179z"/>
</g>
</svg>
