<?xml version="1.0" encoding="iso-8859-1"?>
<!-- Generator: Adobe Illustrator 18.1.1, SVG Export Plug-In . SVG Version: 6.00 Build 0)  -->
<svg version="1.1" id="_x32_" xmlns="http://www.w3.org/2000/svg" xmlns:xlink="http://www.w3.org/1999/xlink" x="0px" y="0px"
	 viewBox="0 0 512 512" style="enable-background:new 0 0 512 512;" xml:space="preserve">
<g>
	<path style="fill:oklch(65% 0.1 90);" d="M496.093,273.76H242.461c-3.902-3.478-6.369-8.532-6.369-14.175
		c0-10.495,8.503-19.001,19.001-19.001h139.395c6.723,0,12.176-5.453,12.176-12.178c0-6.726-5.453-12.178-12.176-12.178h-91.172
		c-7.374,0-13.349-5.976-13.349-13.346c0-7.373,5.975-13.348,13.349-13.348h144.208c7.814,0,14.143-6.33,14.143-14.143
		c0-7.809-6.329-14.141-14.143-14.141H157.803c-7.814,0-14.143,6.332-14.143,14.141c0,7.813,6.329,14.143,14.143,14.143h71.659
		c7.37,0,13.345,5.975,13.345,13.348c0,7.37-5.975,13.346-13.345,13.346H91.102c-6.727,0-12.178,5.452-12.178,12.178
		c0,6.725,5.451,12.178,12.178,12.178h58.835c10.494,0,19.005,8.506,19.005,19.001c0,5.643-2.471,10.697-6.373,14.175H15.911
		C7.125,273.76,0,280.884,0,289.668c0,8.786,7.125,15.907,15.911,15.907h270.228h27.026c6.058,0,10.97,4.911,10.97,10.967
		c0,6.058-4.912,10.969-10.97,10.969h-72.459c-6.417,0-11.617,5.2-11.617,11.618c0,6.415,5.2,11.619,11.617,11.619H432.73
		c6.417,0,11.619-5.204,11.619-11.619c0-6.418-5.202-11.618-11.619-11.618h-58.883c-6.056,0-10.964-4.911-10.964-10.969
		c0-6.056,4.908-10.967,10.964-10.967h0.315h121.931c8.786,0,15.907-7.121,15.907-15.907C512,280.884,504.88,273.76,496.093,273.76z
		"/>
</g>
</svg>
