<?xml version="1.0" encoding="iso-8859-1"?>
<!-- Generator: Adobe Illustrator 18.1.1, SVG Export Plug-In . SVG Version: 6.00 Build 0)  -->
<svg version="1.1" id="_x34_" xmlns="http://www.w3.org/2000/svg" xmlns:xlink="http://www.w3.org/1999/xlink" x="0px" y="0px"
	 viewBox="0 0 512 512" style="enable-background:new 0 0 512 512;" xml:space="preserve">
<g>
	<path style="fill:oklch(65% 0.1 90);" d="M494.833,306.937H359.52c-8.947,0-16.202-7.255-16.202-16.202c0-8.951,7.255-16.206,16.202-16.206
		h20.931h50.654c9.682,0,17.533-7.85,17.533-17.533c0-9.682-7.851-17.533-17.533-17.533H268.082
		c-11.57,0-20.945-9.379-20.945-20.949c0-11.567,9.375-20.945,20.945-20.945h57.265c7.413,0,13.425-6.008,13.425-13.419
		c0-7.415-6.012-13.425-13.425-13.425H99.857c-7.413,0-13.423,6.01-13.423,13.425c0,7.411,6.01,13.419,13.423,13.419h52.325
		c11.566,0,20.945,9.378,20.945,20.945c0,11.57-9.379,20.949-20.945,20.949H17.533C7.853,239.464,0,247.315,0,256.997
		c0,9.683,7.853,17.533,17.533,17.533h252.326c8.953,0,16.208,7.255,16.208,16.206c0,8.947-7.255,16.202-16.208,16.202H162.806
		c-9.485,0-17.169,7.686-17.169,17.167c0,9.482,7.684,17.169,17.169,17.169h332.027c9.485,0,17.167-7.688,17.167-17.169
		C512,314.624,504.317,306.937,494.833,306.937z"/>
</g>
</svg>
