<?xml version="1.0" encoding="iso-8859-1"?>
<!-- Generator: Adobe Illustrator 18.1.1, SVG Export Plug-In . SVG Version: 6.00 Build 0)  -->
<svg version="1.1" id="_x33_" xmlns="http://www.w3.org/2000/svg" xmlns:xlink="http://www.w3.org/1999/xlink" x="0px" y="0px"
	 viewBox="0 0 512 512" style="enable-background:new 0 0 512 512;" xml:space="preserve">
<g>
	<path style="fill:#FFFFFF;" d="M494.601,245.358H217.129c-4.27-3.81-6.972-9.336-6.972-15.508c0-11.481,9.305-20.788,20.79-20.788
		h56.841c7.356,0,13.32-5.965,13.32-13.32c0-7.36-5.963-13.325-13.32-13.325H51.542c-7.358,0-13.323,5.964-13.323,13.325
		c0,7.355,5.965,13.32,13.323,13.32h64.365c11.479,0,20.794,9.307,20.794,20.788c0,6.172-2.709,11.698-6.974,15.508H17.403
		C7.792,245.358,0,253.15,0,262.759c0,9.61,7.792,17.401,17.403,17.401h247.509h29.567c6.625,0,11.998,5.371,11.998,11.999
		c0,6.625-5.373,11.997-11.998,11.997h-79.27c-7.023,0-12.713,5.694-12.713,12.711c0,7.021,5.689,12.715,12.713,12.715h210.073
		c7.019,0,12.711-5.693,12.711-12.715c0-7.017-5.691-12.711-12.711-12.711h-64.418c-6.629,0-11.998-5.372-11.998-11.997
		c0-6.628,5.369-11.999,11.998-11.999h0.345h133.392c9.61,0,17.399-7.792,17.399-17.401C512,253.15,504.211,245.358,494.601,245.358
		z"/>
</g>
</svg>
